<mxfile host="app.diagrams.net" agent="Mozilla/5.0 (X11; Linux x86_64) AppleWebKit/537.36 (KHTML, like Gecko) Chrome/133.0.0.0 Safari/537.36" version="26.0.14">
  <diagram name="Page-1" id="e7e014a7-5840-1c2e-5031-d8a46d1fe8dd">
    <mxGraphModel dx="989" dy="1346" grid="1" gridSize="10" guides="1" tooltips="1" connect="1" arrows="1" fold="1" page="1" pageScale="1" pageWidth="1169" pageHeight="826" background="none" math="0" shadow="0">
      <root>
        <mxCell id="0" />
        <mxCell id="1" parent="0" />
        <mxCell id="3x8CAyZt968ioepNavin-51" value="" style="ellipse;html=1;shape=startState;labelBackgroundColor=none;" parent="1" vertex="1">
          <mxGeometry x="335" y="-10" width="30" height="30" as="geometry" />
        </mxCell>
        <mxCell id="3x8CAyZt968ioepNavin-52" value="" style="edgeStyle=orthogonalEdgeStyle;html=1;verticalAlign=bottom;endArrow=open;endSize=8;rounded=0;entryX=0.492;entryY=-0.002;entryDx=0;entryDy=0;entryPerimeter=0;labelBackgroundColor=none;fontColor=default;" parent="1" source="3x8CAyZt968ioepNavin-51" target="3" edge="1">
          <mxGeometry relative="1" as="geometry">
            <mxPoint x="45" y="100" as="targetPoint" />
            <Array as="points">
              <mxPoint x="350" y="35" />
              <mxPoint x="349" y="35" />
            </Array>
          </mxGeometry>
        </mxCell>
        <mxCell id="3x8CAyZt968ioepNavin-54" value="" style="edgeStyle=orthogonalEdgeStyle;html=1;align=left;verticalAlign=bottom;endArrow=open;endSize=8;rounded=0;entryX=0.5;entryY=0;entryDx=0;entryDy=0;labelBackgroundColor=none;fontColor=default;" parent="1" target="3x8CAyZt968ioepNavin-58" edge="1">
          <mxGeometry x="-1" relative="1" as="geometry">
            <mxPoint x="250" y="135" as="targetPoint" />
            <Array as="points" />
            <mxPoint x="350" y="102" as="sourcePoint" />
          </mxGeometry>
        </mxCell>
        <mxCell id="3x8CAyZt968ioepNavin-58" value="List all transactions" style="rounded=1;whiteSpace=wrap;html=1;arcSize=40;labelBackgroundColor=none;" parent="1" vertex="1">
          <mxGeometry x="290" y="150" width="120" height="40" as="geometry" />
        </mxCell>
        <mxCell id="3x8CAyZt968ioepNavin-59" value="" style="edgeStyle=orthogonalEdgeStyle;html=1;verticalAlign=bottom;endArrow=open;endSize=8;rounded=0;labelBackgroundColor=none;fontColor=default;entryX=0.5;entryY=0;entryDx=0;entryDy=0;" parent="1" source="3x8CAyZt968ioepNavin-58" target="WV4lEcAO4vz2BIIuecdh-5" edge="1">
          <mxGeometry relative="1" as="geometry">
            <mxPoint x="310" y="213.28999999999996" as="targetPoint" />
            <Array as="points">
              <mxPoint x="350" y="220" />
              <mxPoint x="350" y="220" />
            </Array>
          </mxGeometry>
        </mxCell>
        <mxCell id="3x8CAyZt968ioepNavin-61" value="" style="edgeStyle=orthogonalEdgeStyle;html=1;verticalAlign=bottom;endArrow=open;endSize=8;rounded=0;labelBackgroundColor=none;fontColor=default;entryX=0.5;entryY=0;entryDx=0;entryDy=0;" parent="1" source="WV4lEcAO4vz2BIIuecdh-5" edge="1" target="3x8CAyZt968ioepNavin-66">
          <mxGeometry relative="1" as="geometry">
            <mxPoint x="309.66" y="320" as="targetPoint" />
            <mxPoint x="310" y="250" as="sourcePoint" />
          </mxGeometry>
        </mxCell>
        <mxCell id="3x8CAyZt968ioepNavin-62" value="" style="edgeStyle=orthogonalEdgeStyle;html=1;verticalAlign=bottom;endArrow=open;endSize=8;rounded=0;labelBackgroundColor=none;fontColor=default;exitX=0;exitY=0.5;exitDx=0;exitDy=0;entryX=0.5;entryY=0;entryDx=0;entryDy=0;entryPerimeter=0;" parent="1" edge="1" target="3x8CAyZt968ioepNavin-64" source="WV4lEcAO4vz2BIIuecdh-5">
          <mxGeometry relative="1" as="geometry">
            <mxPoint x="180" y="320" as="targetPoint" />
            <mxPoint x="180" y="250" as="sourcePoint" />
            <Array as="points">
              <mxPoint x="220" y="235" />
            </Array>
          </mxGeometry>
        </mxCell>
        <mxCell id="3x8CAyZt968ioepNavin-63" value="" style="edgeStyle=orthogonalEdgeStyle;html=1;verticalAlign=bottom;endArrow=open;endSize=8;rounded=0;labelBackgroundColor=none;fontColor=default;exitX=1;exitY=0.5;exitDx=0;exitDy=0;entryX=0.5;entryY=0;entryDx=0;entryDy=0;" parent="1" edge="1" target="3x8CAyZt968ioepNavin-68" source="WV4lEcAO4vz2BIIuecdh-5">
          <mxGeometry relative="1" as="geometry">
            <mxPoint x="439" y="320" as="targetPoint" />
            <mxPoint x="439" y="250" as="sourcePoint" />
          </mxGeometry>
        </mxCell>
        <mxCell id="3x8CAyZt968ioepNavin-64" value="Select transaction&amp;nbsp;" style="rounded=1;whiteSpace=wrap;html=1;arcSize=40;labelBackgroundColor=none;" parent="1" vertex="1">
          <mxGeometry x="160" y="320" width="120" height="40" as="geometry" />
        </mxCell>
        <mxCell id="3x8CAyZt968ioepNavin-66" value="Generate report" style="rounded=1;whiteSpace=wrap;html=1;arcSize=40;labelBackgroundColor=none;" parent="1" vertex="1">
          <mxGeometry x="290" y="320" width="120" height="40" as="geometry" />
        </mxCell>
        <mxCell id="3x8CAyZt968ioepNavin-67" value="" style="edgeStyle=orthogonalEdgeStyle;html=1;verticalAlign=bottom;endArrow=open;endSize=8;rounded=0;labelBackgroundColor=none;fontColor=default;entryX=0.5;entryY=0;entryDx=0;entryDy=0;" parent="1" source="3x8CAyZt968ioepNavin-66" target="3x8CAyZt968ioepNavin-84" edge="1">
          <mxGeometry relative="1" as="geometry">
            <mxPoint x="350" y="470" as="targetPoint" />
          </mxGeometry>
        </mxCell>
        <mxCell id="3x8CAyZt968ioepNavin-68" value="Filter Transactions" style="rounded=1;whiteSpace=wrap;html=1;arcSize=40;labelBackgroundColor=none;" parent="1" vertex="1">
          <mxGeometry x="430" y="320" width="120" height="40" as="geometry" />
        </mxCell>
        <mxCell id="3x8CAyZt968ioepNavin-69" value="" style="edgeStyle=orthogonalEdgeStyle;html=1;verticalAlign=bottom;endArrow=open;endSize=8;rounded=0;labelBackgroundColor=none;fontColor=default;entryX=0.458;entryY=0.028;entryDx=0;entryDy=0;entryPerimeter=0;" parent="1" source="3x8CAyZt968ioepNavin-68" edge="1" target="3x8CAyZt968ioepNavin-86">
          <mxGeometry relative="1" as="geometry">
            <mxPoint x="490" y="390" as="targetPoint" />
          </mxGeometry>
        </mxCell>
        <mxCell id="3x8CAyZt968ioepNavin-82" value="Display transaction details" style="rounded=1;whiteSpace=wrap;html=1;arcSize=40;labelBackgroundColor=none;" parent="1" vertex="1">
          <mxGeometry x="160" y="413" width="120" height="40" as="geometry" />
        </mxCell>
        <mxCell id="3x8CAyZt968ioepNavin-83" value="" style="edgeStyle=orthogonalEdgeStyle;html=1;verticalAlign=bottom;endArrow=open;endSize=8;rounded=0;entryX=0;entryY=0.5;entryDx=0;entryDy=0;labelBackgroundColor=none;fontColor=default;" parent="1" source="3x8CAyZt968ioepNavin-82" target="3x8CAyZt968ioepNavin-88" edge="1">
          <mxGeometry relative="1" as="geometry">
            <mxPoint x="190" y="790" as="targetPoint" />
            <Array as="points">
              <mxPoint x="220" y="825" />
            </Array>
          </mxGeometry>
        </mxCell>
        <mxCell id="3x8CAyZt968ioepNavin-84" value="Create detailed transaction summaries " style="rounded=1;whiteSpace=wrap;html=1;arcSize=40;labelBackgroundColor=none;" parent="1" vertex="1">
          <mxGeometry x="290" y="408" width="120" height="50" as="geometry" />
        </mxCell>
        <mxCell id="3x8CAyZt968ioepNavin-85" value="" style="edgeStyle=orthogonalEdgeStyle;html=1;verticalAlign=bottom;endArrow=open;endSize=8;rounded=0;labelBackgroundColor=none;fontColor=default;entryX=0.5;entryY=0;entryDx=0;entryDy=0;" parent="1" source="3x8CAyZt968ioepNavin-84" target="WV4lEcAO4vz2BIIuecdh-10" edge="1">
          <mxGeometry relative="1" as="geometry">
            <mxPoint x="350" y="570" as="targetPoint" />
          </mxGeometry>
        </mxCell>
        <mxCell id="3x8CAyZt968ioepNavin-86" value="show only the transactions matching the criteria" style="rounded=1;whiteSpace=wrap;html=1;arcSize=40;labelBackgroundColor=none;" parent="1" vertex="1">
          <mxGeometry x="430" y="408" width="130" height="50" as="geometry" />
        </mxCell>
        <mxCell id="3x8CAyZt968ioepNavin-87" value="" style="edgeStyle=orthogonalEdgeStyle;html=1;verticalAlign=bottom;endArrow=open;endSize=8;rounded=0;entryX=1;entryY=0.5;entryDx=0;entryDy=0;labelBackgroundColor=none;fontColor=default;" parent="1" source="3x8CAyZt968ioepNavin-86" target="3x8CAyZt968ioepNavin-88" edge="1">
          <mxGeometry relative="1" as="geometry">
            <mxPoint x="455" y="790" as="targetPoint" />
            <Array as="points">
              <mxPoint x="490" y="825" />
            </Array>
          </mxGeometry>
        </mxCell>
        <mxCell id="3x8CAyZt968ioepNavin-88" value="" style="rhombus;labelBackgroundColor=none;" parent="1" vertex="1">
          <mxGeometry x="335" y="810" width="30" height="30" as="geometry" />
        </mxCell>
        <mxCell id="3x8CAyZt968ioepNavin-89" value="" style="edgeStyle=orthogonalEdgeStyle;html=1;verticalAlign=bottom;endArrow=open;endSize=8;rounded=0;labelBackgroundColor=none;fontColor=default;entryX=0.5;entryY=0;entryDx=0;entryDy=0;" parent="1" edge="1" target="3x8CAyZt968ioepNavin-90" source="3x8CAyZt968ioepNavin-88">
          <mxGeometry relative="1" as="geometry">
            <mxPoint x="350" y="880" as="targetPoint" />
            <mxPoint x="350" y="840" as="sourcePoint" />
          </mxGeometry>
        </mxCell>
        <mxCell id="3x8CAyZt968ioepNavin-90" value="Confirm results" style="rounded=1;whiteSpace=wrap;html=1;arcSize=40;labelBackgroundColor=none;" parent="1" vertex="1">
          <mxGeometry x="290" y="870" width="120" height="40" as="geometry" />
        </mxCell>
        <mxCell id="3x8CAyZt968ioepNavin-91" value="" style="edgeStyle=orthogonalEdgeStyle;html=1;verticalAlign=bottom;endArrow=open;endSize=8;rounded=0;entryX=0.5;entryY=0;entryDx=0;entryDy=0;labelBackgroundColor=none;fontColor=default;exitX=0.5;exitY=1;exitDx=0;exitDy=0;" parent="1" source="3x8CAyZt968ioepNavin-90" target="3x8CAyZt968ioepNavin-92" edge="1">
          <mxGeometry relative="1" as="geometry">
            <mxPoint x="320" y="980" as="targetPoint" />
            <Array as="points" />
          </mxGeometry>
        </mxCell>
        <mxCell id="3x8CAyZt968ioepNavin-92" value="" style="ellipse;html=1;shape=endState;labelBackgroundColor=none;" parent="1" vertex="1">
          <mxGeometry x="335" y="940" width="30" height="30" as="geometry" />
        </mxCell>
        <mxCell id="3" value="login" style="shape=mxgraph.uml25.behaviorAction;html=1;rounded=1;absoluteArcSize=1;arcSize=10;align=left;spacingLeft=5;whiteSpace=wrap;labelBackgroundColor=none;" parent="1" vertex="1">
          <mxGeometry x="280" y="50" width="140" height="60" as="geometry" />
        </mxCell>
        <mxCell id="WV4lEcAO4vz2BIIuecdh-5" value="" style="rhombus;labelBackgroundColor=none;" vertex="1" parent="1">
          <mxGeometry x="335" y="220" width="30" height="30" as="geometry" />
        </mxCell>
        <mxCell id="WV4lEcAO4vz2BIIuecdh-9" value="" style="edgeStyle=orthogonalEdgeStyle;html=1;verticalAlign=bottom;endArrow=open;endSize=8;rounded=0;labelBackgroundColor=none;fontColor=default;" edge="1" parent="1" source="3x8CAyZt968ioepNavin-64" target="3x8CAyZt968ioepNavin-82">
          <mxGeometry relative="1" as="geometry">
            <mxPoint x="219.66" y="480" as="targetPoint" />
            <mxPoint x="219.66" y="360" as="sourcePoint" />
            <Array as="points" />
          </mxGeometry>
        </mxCell>
        <mxCell id="WV4lEcAO4vz2BIIuecdh-10" value="Select to print the report" style="rounded=1;whiteSpace=wrap;html=1;arcSize=40;labelBackgroundColor=none;" vertex="1" parent="1">
          <mxGeometry x="290" y="490" width="120" height="40" as="geometry" />
        </mxCell>
        <mxCell id="WV4lEcAO4vz2BIIuecdh-11" value="" style="edgeStyle=orthogonalEdgeStyle;html=1;verticalAlign=bottom;endArrow=open;endSize=8;rounded=0;entryX=0.5;entryY=0;entryDx=0;entryDy=0;entryPerimeter=0;labelBackgroundColor=none;fontColor=default;" edge="1" source="WV4lEcAO4vz2BIIuecdh-10" parent="1" target="WV4lEcAO4vz2BIIuecdh-12">
          <mxGeometry relative="1" as="geometry">
            <mxPoint x="350" y="670" as="targetPoint" />
          </mxGeometry>
        </mxCell>
        <mxCell id="WV4lEcAO4vz2BIIuecdh-12" value="" style="rhombus;whiteSpace=wrap;html=1;labelBackgroundColor=none;" vertex="1" parent="1">
          <mxGeometry x="310" y="560" width="80" height="40" as="geometry" />
        </mxCell>
        <mxCell id="WV4lEcAO4vz2BIIuecdh-13" value="no" style="edgeStyle=orthogonalEdgeStyle;html=1;align=left;verticalAlign=bottom;endArrow=open;endSize=8;rounded=0;entryX=1;entryY=0.5;entryDx=0;entryDy=0;labelBackgroundColor=none;fontColor=default;" edge="1" source="WV4lEcAO4vz2BIIuecdh-12" parent="1" target="WV4lEcAO4vz2BIIuecdh-17">
          <mxGeometry x="-1" relative="1" as="geometry">
            <mxPoint x="440" y="690" as="targetPoint" />
          </mxGeometry>
        </mxCell>
        <mxCell id="WV4lEcAO4vz2BIIuecdh-14" value="yes" style="edgeStyle=orthogonalEdgeStyle;html=1;align=left;verticalAlign=top;endArrow=open;endSize=8;rounded=0;labelBackgroundColor=none;fontColor=default;" edge="1" source="WV4lEcAO4vz2BIIuecdh-12" parent="1" target="WV4lEcAO4vz2BIIuecdh-15">
          <mxGeometry x="-1" relative="1" as="geometry">
            <mxPoint x="350" y="720" as="targetPoint" />
          </mxGeometry>
        </mxCell>
        <mxCell id="WV4lEcAO4vz2BIIuecdh-15" value="Print the report" style="rounded=1;whiteSpace=wrap;html=1;arcSize=40;labelBackgroundColor=none;" vertex="1" parent="1">
          <mxGeometry x="290" y="640" width="120" height="40" as="geometry" />
        </mxCell>
        <mxCell id="WV4lEcAO4vz2BIIuecdh-16" value="" style="edgeStyle=orthogonalEdgeStyle;html=1;verticalAlign=bottom;endArrow=open;endSize=8;rounded=0;entryX=0;entryY=0.5;entryDx=0;entryDy=0;labelBackgroundColor=none;fontColor=default;" edge="1" source="WV4lEcAO4vz2BIIuecdh-15" parent="1" target="WV4lEcAO4vz2BIIuecdh-17">
          <mxGeometry relative="1" as="geometry">
            <mxPoint x="350" y="790" as="targetPoint" />
          </mxGeometry>
        </mxCell>
        <mxCell id="WV4lEcAO4vz2BIIuecdh-17" value="" style="rhombus;labelBackgroundColor=none;" vertex="1" parent="1">
          <mxGeometry x="430" y="710" width="30" height="30" as="geometry" />
        </mxCell>
        <mxCell id="WV4lEcAO4vz2BIIuecdh-18" value="" style="edgeStyle=orthogonalEdgeStyle;html=1;verticalAlign=bottom;endArrow=open;endSize=8;rounded=0;entryX=0.5;entryY=0;entryDx=0;entryDy=0;exitX=0.5;exitY=1;exitDx=0;exitDy=0;labelBackgroundColor=none;fontColor=default;" edge="1" parent="1" source="WV4lEcAO4vz2BIIuecdh-17" target="3x8CAyZt968ioepNavin-88">
          <mxGeometry relative="1" as="geometry">
            <mxPoint x="444.65999999999997" y="780" as="targetPoint" />
            <mxPoint x="444.65999999999997" y="750" as="sourcePoint" />
          </mxGeometry>
        </mxCell>
      </root>
    </mxGraphModel>
  </diagram>
</mxfile>
